<svg width="83" height="83" viewBox="0 0 83 83" fill="none" xmlns="http://www.w3.org/2000/svg">
<g filter="url(#filter0_bd_144_189)">
<circle cx="41.5" cy="37.5" r="18.5" fill="url(#paint0_linear_144_189)" shape-rendering="crispEdges"/>
<circle cx="41.5" cy="37.5" r="18" stroke="url(#paint1_linear_144_189)" shape-rendering="crispEdges"/>
</g>
<path d="M46.5 29H36C33.7909 29 32 30.7909 32 33V42C32 44.2091 33.7909 46 36 46H46.5C48.7091 46 50.5 44.2091 50.5 42V33C50.5 30.7909 48.7091 29 46.5 29Z" stroke="white" stroke-width="1.5"/>
<path d="M32.0469 33.0898L39.2521 37.2199C39.8564 37.571 40.5419 37.7558 41.2397 37.7558C41.9376 37.7558 42.6231 37.571 43.2274 37.2199L50.4525 33.0898" stroke="white" stroke-width="1.5" stroke-linecap="round" stroke-linejoin="round"/>
<defs>
<filter id="filter0_bd_144_189" x="-17" y="-21" width="117" height="117" filterUnits="userSpaceOnUse" color-interpolation-filters="sRGB">
<feFlood flood-opacity="0" result="BackgroundImageFix"/>
<feGaussianBlur in="BackgroundImageFix" stdDeviation="20"/>
<feComposite in2="SourceAlpha" operator="in" result="effect1_backgroundBlur_144_189"/>
<feColorMatrix in="SourceAlpha" type="matrix" values="0 0 0 0 0 0 0 0 0 0 0 0 0 0 0 0 0 0 127 0" result="hardAlpha"/>
<feMorphology radius="1" operator="erode" in="SourceAlpha" result="effect2_dropShadow_144_189"/>
<feOffset dy="4"/>
<feGaussianBlur stdDeviation="12"/>
<feComposite in2="hardAlpha" operator="out"/>
<feColorMatrix type="matrix" values="0 0 0 0 0 0 0 0 0 0 0 0 0 0 0 0 0 0 0.2 0"/>
<feBlend mode="normal" in2="effect1_backgroundBlur_144_189" result="effect2_dropShadow_144_189"/>
<feBlend mode="normal" in="SourceGraphic" in2="effect2_dropShadow_144_189" result="shape"/>
</filter>
<linearGradient id="paint0_linear_144_189" x1="4.87525" y1="6.91532" x2="58.1264" y2="40.131" gradientUnits="userSpaceOnUse">
<stop stop-color="white" stop-opacity="0.4"/>
<stop offset="1" stop-color="white" stop-opacity="0.1"/>
</linearGradient>
<linearGradient id="paint1_linear_144_189" x1="30.6552" y1="19" x2="63.3211" y2="46.7435" gradientUnits="userSpaceOnUse">
<stop stop-color="white"/>
<stop offset="1" stop-color="#00A8E8"/>
</linearGradient>
</defs>
</svg>
