<svg width="15" height="15" viewBox="0 0 15 15" fill="none" xmlns="http://www.w3.org/2000/svg">
<path d="M11.5264 4.4474e-05H3.45638C2.99885 6.01246e-06 2.54588 0.0903982 2.12372 0.265975C1.70157 0.441552 1.31864 0.698821 0.997141 1.02286C0.67564 1.34689 0.421971 1.73124 0.250847 2.15363C0.0797238 2.57601 -0.00544568 3.02801 0.000269718 3.48341V11.5166C-0.00544568 11.972 0.0797238 12.424 0.250847 12.8464C0.421971 13.2688 0.67564 13.6532 0.997141 13.9772C1.31864 14.3012 1.70157 14.5585 2.12372 14.7341C2.54588 14.9096 2.99885 15 3.45638 15H7.11986V9.64161H5.72012C5.63304 9.64161 5.54953 9.60723 5.48796 9.54592C5.42638 9.48462 5.39179 9.40146 5.39179 9.31485V7.59461C5.39179 7.50569 5.42729 7.42038 5.49049 7.35746C5.55368 7.29454 5.63939 7.25923 5.72876 7.25923H7.11986V5.58202C7.08117 5.18606 7.12971 4.78646 7.26209 4.41109C7.39448 4.03572 7.60756 3.69362 7.8864 3.40864C8.16525 3.12368 8.50325 2.90269 8.87671 2.76111C9.25025 2.61954 9.65025 2.56077 10.0489 2.58891H11.4746C11.5184 2.5889 11.5618 2.59763 11.6022 2.61458C11.6426 2.63154 11.6792 2.65639 11.7098 2.68766C11.7404 2.71892 11.7644 2.75598 11.7804 2.79663C11.7964 2.83728 11.804 2.88071 11.8029 2.92434V4.3779C11.8029 4.46458 11.7683 4.54771 11.7067 4.60901C11.6451 4.6703 11.5616 4.70473 11.4746 4.70473H10.6105C9.6601 4.70473 9.47864 5.15198 9.47864 5.80564V7.25061H11.5523C11.5993 7.25015 11.6459 7.25985 11.6888 7.27885C11.7317 7.29792 11.77 7.32592 11.8012 7.361C11.8323 7.39608 11.8555 7.43738 11.8692 7.48215C11.8829 7.52685 11.8868 7.57408 11.8806 7.62046L11.6733 9.34062C11.6647 9.42123 11.6263 9.49577 11.5657 9.54977C11.505 9.60385 11.4263 9.63346 11.3449 9.63308H9.48725V14.9914H11.5436C12.0012 14.9915 12.4542 14.9011 12.8763 14.7255C13.2985 14.5499 13.6814 14.2926 14.0029 13.9686C14.3244 13.6445 14.578 13.2602 14.7492 12.8378C14.9203 12.4155 15.0055 11.9635 14.9997 11.508V3.48341C15.0055 3.02655 14.9198 2.57314 14.7476 2.14962C14.5754 1.72611 14.3202 1.34098 13.9968 1.01671C13.6735 0.692452 13.2885 0.435537 12.8643 0.260983C12.4402 0.086429 11.9853 -0.0022786 11.5264 4.4474e-05Z" fill="white"/>
</svg>
