<svg width="34" height="34" viewBox="0 0 34 34" fill="none" xmlns="http://www.w3.org/2000/svg">
<rect width="34" height="34" rx="5" fill="#161616"/>
<path fill-rule="evenodd" clip-rule="evenodd" d="M16.3458 19.3526L14.7298 21.5424C13.9685 22.6728 13.603 23.1006 12.0803 23.3144C10.3748 23.345 9.6236 22.4793 9.36981 22.0618L1.99975 12.0404H7.72525C9.74706 12.0404 10.3189 12.6898 10.6823 13.1024C10.713 13.1372 10.7422 13.1704 10.7707 13.2014L13.8771 17.2649L12.4153 19.0676L9.91799 15.8595C8.96781 14.3441 8.18207 14.1485 7.93843 14.2096H6.26342L10.7707 20.5036C11.9201 21.9737 13.0965 20.3434 13.2514 20.1287C13.2607 20.1159 13.2663 20.1081 13.268 20.1064L15.065 17.6275L16.3458 19.3526ZM16.918 15.0715L18.3844 13.0486C19.5295 11.1666 20.8513 11.0321 21.4604 11.0016C22.0154 10.9975 22.7638 11.0021 23.5129 11.0066C24.5722 11.013 25.633 11.0195 26.1504 11.0016C22.2148 11.3424 21.7363 12.0178 21.2643 12.6839C21.2286 12.7343 21.1929 12.7846 21.1558 12.8348L18.2039 16.8347L16.918 15.0715Z" fill="white"/>
<path d="M22.6007 13.2016L19.4737 17.2652L20.9452 19.0678L23.459 15.8598C24.4155 14.3443 25.2065 14.1488 25.4517 14.2099H27.1378L22.6007 20.5038C21.3744 22.062 20.1175 20.1372 20.0868 20.1066L14.9365 13.0489C13.7839 11.1668 12.4534 11.0324 11.8402 11.0018C10.4914 10.992 8.00818 11.0324 7.11914 11.0018C11.3804 11.3685 11.6154 12.1221 12.1468 12.835L18.6153 21.5426C19.3817 22.6731 19.7496 23.1008 21.2824 23.3147C22.9992 23.3452 23.7554 22.4796 24.0109 22.062L31.4297 12.0406H25.6663C23.459 12.0406 22.9685 12.8045 22.6007 13.2016Z" fill="white"/>
</svg>
