<svg width="15" height="15" viewBox="0 0 15 15" fill="none" xmlns="http://www.w3.org/2000/svg">
<path d="M8.60569 7.4234C8.59371 7.68351 8.50828 7.93484 8.35919 8.1484C8.2095 8.36903 7.99379 8.53648 7.74297 8.6269C7.49476 8.72811 7.22149 8.75086 6.95997 8.69212C6.69704 8.63598 6.45708 8.50213 6.27119 8.3079C6.08715 8.10528 5.96617 7.85327 5.92319 7.5829C5.87463 7.32071 5.90757 7.05005 6.01747 6.80712C6.12462 6.56344 6.30108 6.35665 6.52497 6.21262C6.75363 6.07096 7.01723 5.99564 7.28619 5.99512C7.6408 6.01452 7.9749 6.16733 8.22147 6.4229C8.34915 6.55556 8.44886 6.71238 8.51489 6.88423C8.58085 7.05607 8.61178 7.23944 8.60569 7.4234Z" fill="white"/>
<path d="M11.1649 4.27725C11.0803 4.06827 10.9546 3.87843 10.7951 3.71901C10.6357 3.55959 10.4459 3.43384 10.2369 3.34925C10.0265 3.267 9.80312 3.22282 9.57714 3.21875H4.99518C4.54198 3.22066 4.10789 3.40154 3.78743 3.722C3.46696 4.04246 3.28608 4.47655 3.28418 4.92975V9.59877C3.2845 9.82407 3.32952 10.0472 3.41663 10.255C3.50374 10.4628 3.63122 10.6512 3.79168 10.8095C4.11202 11.1271 4.54404 11.3067 4.99518 11.3098H9.57714C10.0284 11.3067 10.4603 11.1271 10.7806 10.8095C10.9411 10.6512 11.0686 10.4628 11.1557 10.255C11.2429 10.0472 11.2878 9.82407 11.2881 9.59877V4.937C11.2866 4.71151 11.2449 4.48811 11.1649 4.27725ZM9.35243 8.32276C9.24327 8.5941 9.08057 8.84075 8.87393 9.04777C8.6652 9.25783 8.41937 9.42744 8.14893 9.54798C7.87551 9.66286 7.58269 9.72436 7.28614 9.72926C6.94655 9.73588 6.6097 9.66695 6.29999 9.52738C5.99029 9.38781 5.71553 9.18117 5.49555 8.92232C5.27557 8.66348 5.1159 8.35898 5.02811 8.03083C4.94032 7.70269 4.92659 7.35907 4.98793 7.02498C5.07726 6.58068 5.29097 6.17082 5.60418 5.84326C5.92389 5.52279 6.33063 5.3032 6.77396 5.2117C7.21729 5.1202 7.67772 5.16081 8.09814 5.3285C8.5202 5.49894 8.87966 5.79508 9.12764 6.17676C9.37846 6.54462 9.51468 6.97858 9.51914 7.42377C9.52978 7.73198 9.47282 8.03879 9.35243 8.32276ZM10.1499 4.74125C10.1577 4.79961 10.1529 4.85897 10.1359 4.91534C10.1188 4.9717 10.09 5.02378 10.0513 5.06809C10.0124 5.11238 9.96463 5.14789 9.91101 5.17221C9.8574 5.19654 9.79918 5.20912 9.74029 5.20912C9.68139 5.20912 9.62325 5.19654 9.56963 5.17221C9.51595 5.14789 9.46813 5.11238 9.42939 5.06809C9.39058 5.02378 9.36172 4.9717 9.3447 4.91534C9.32767 4.85897 9.32291 4.79961 9.33064 4.74125C9.32291 4.68289 9.32767 4.62353 9.3447 4.56716C9.36172 4.5108 9.39058 4.45872 9.42939 4.41441C9.46813 4.37012 9.51595 4.33461 9.56963 4.31029C9.62325 4.28597 9.68139 4.27338 9.74029 4.27338C9.79918 4.27338 9.8574 4.28597 9.91101 4.31029C9.96463 4.33461 10.0124 4.37012 10.0513 4.41441C10.09 4.45872 10.1188 4.5108 10.1359 4.56716C10.1529 4.62353 10.1577 4.68289 10.1499 4.74125Z" fill="white"/>
<path d="M10.875 0H3.625C2.66359 0 1.74155 0.381915 1.06173 1.06173C0.381915 1.74155 0 2.66359 0 3.625V10.875C0 11.8364 0.381915 12.7584 1.06173 13.4382C1.74155 14.1181 2.66359 14.5 3.625 14.5H10.875C11.8364 14.5 12.7584 14.1181 13.4382 13.4382C14.1181 12.7584 14.5 11.8364 14.5 10.875V3.625C14.5 2.66359 14.1181 1.74155 13.4382 1.06173C12.7584 0.381915 11.8364 0 10.875 0ZM12.412 9.5265C12.4188 9.90677 12.3472 10.2844 12.2018 10.6358C11.9076 11.3403 11.3475 11.9003 10.643 12.1945C10.2916 12.34 9.91399 12.4116 9.53371 12.4048H5.075C4.69479 12.411 4.31732 12.3394 3.96575 12.1945C3.61727 12.0479 3.29987 11.8363 3.0305 11.571C2.76366 11.3029 2.55185 10.9852 2.407 10.6358C2.25404 10.2859 2.17505 9.90826 2.175 9.5265V5.0315C2.16879 4.65129 2.24034 4.27382 2.38525 3.92225C2.67283 3.215 3.22772 2.64969 3.9295 2.349C4.29422 2.20713 4.68387 2.14054 5.075 2.15325H9.57C9.94685 2.14992 10.3206 2.22197 10.6692 2.36514C11.0178 2.50833 11.3342 2.71975 11.6 2.987C11.8653 3.25637 12.0769 3.57377 12.2235 3.92225C12.3684 4.27382 12.44 4.65129 12.4338 5.0315L12.412 9.5265Z" fill="white"/>
</svg>
