<svg width="15" height="14" viewBox="0 0 15 14" fill="none" xmlns="http://www.w3.org/2000/svg">
<path d="M11.5792 0H3.42075C2.51352 0 1.64344 0.336373 1.00192 0.935121C0.360408 1.53387 0 2.34595 0 3.1927V10.8073C0 11.654 0.360408 12.4661 1.00192 13.0649C1.64344 13.6636 2.51352 14 3.42075 14H11.5792C12.4865 14 13.3566 13.6636 13.9981 13.0649C14.6396 12.4661 15 11.654 15 10.8073V3.1927C15 2.34595 14.6396 1.53387 13.9981 0.935121C13.3566 0.336373 12.4865 0 11.5792 0ZM5.07127 11.3022C5.0736 11.3412 5.06736 11.3803 5.05294 11.417C5.03852 11.4538 5.0162 11.4873 4.98738 11.5158C4.95855 11.5441 4.92382 11.5667 4.88531 11.5822C4.8468 11.5976 4.80532 11.6056 4.76341 11.6055H3.3951C3.31267 11.6034 3.23437 11.5714 3.17686 11.5162C3.11936 11.461 3.0872 11.3871 3.08723 11.3101V5.9943C3.08608 5.95589 3.09322 5.91769 3.10818 5.88187C3.12313 5.84611 3.14562 5.81345 3.17432 5.78595C3.20302 5.75838 3.23736 5.73655 3.27528 5.72155C3.3132 5.70662 3.35394 5.69893 3.3951 5.69901H4.76341C4.80456 5.69893 4.8453 5.70662 4.88322 5.72155C4.92115 5.73655 4.95548 5.75838 4.98418 5.78595C5.01288 5.81345 5.03538 5.84611 5.05034 5.88187C5.0653 5.91769 5.07242 5.95589 5.07127 5.9943V11.3022ZM4.0536 4.58152C3.8307 4.57995 3.6133 4.51682 3.42879 4.4001C3.24428 4.28338 3.10092 4.11828 3.01679 3.92563C2.93266 3.73297 2.91153 3.52139 2.95605 3.31754C3.00056 3.11369 3.10875 2.92671 3.26695 2.78016C3.42516 2.63361 3.62631 2.53405 3.84505 2.49405C4.06378 2.45403 4.29032 2.47536 4.49609 2.55533C4.70186 2.6353 4.87766 2.77034 5.00133 2.94343C5.12499 3.11651 5.19099 3.3199 5.191 3.52794C5.191 3.66697 5.16152 3.80463 5.10426 3.93298C5.047 4.06133 4.96308 4.17784 4.85735 4.27577C4.75162 4.37371 4.62616 4.45115 4.48821 4.50363C4.35026 4.55611 4.20255 4.58258 4.0536 4.58152ZM12.3745 11.2942C12.3746 11.3669 12.3442 11.4368 12.2899 11.489C12.2357 11.5411 12.1617 11.5715 12.0838 11.5735H10.6385C10.5606 11.5715 10.4867 11.5411 10.4324 11.489C10.3781 11.4368 10.3478 11.3669 10.3478 11.2942V8.8358C10.3478 8.46864 10.4675 7.23944 9.30446 7.23944C8.39792 7.23944 8.21838 8.10148 8.18415 8.48457V11.3501C8.18415 11.4228 8.15385 11.4926 8.09954 11.5448C8.04523 11.597 7.97131 11.6273 7.89338 11.6294H6.49092C6.45162 11.6294 6.41269 11.6222 6.37631 11.6082C6.34 11.5941 6.307 11.5735 6.27923 11.5476C6.25146 11.5216 6.22938 11.4908 6.21438 11.457C6.19931 11.4231 6.19154 11.3867 6.19154 11.3501V5.97032C6.19377 5.89766 6.22631 5.82867 6.28223 5.77798C6.33808 5.72729 6.413 5.69893 6.49092 5.69901H7.89338C7.97131 5.69893 8.04615 5.72729 8.10208 5.77798C8.158 5.82867 8.19046 5.89766 8.19269 5.97032V6.43332C8.39746 6.15368 8.68008 5.93162 9.01015 5.79097C9.34015 5.65026 9.70508 5.59641 10.0655 5.63511C12.4002 5.63511 12.3917 7.67049 12.3917 8.82783L12.3745 11.2942Z" fill="white"/>
</svg>
