<svg width="160" height="22" viewBox="0 0 160 22" fill="none" xmlns="http://www.w3.org/2000/svg">
<path d="M56.9531 4.45455L61.4986 17.2741H61.6264L66.1719 4.45455H67.5639L62.2727 19H60.8523L55.5611 4.45455H56.9531ZM71.3849 4.45455V19H70.0568V4.45455H71.3849ZM86.5803 4.45455V19H85.2876L76.6939 6.8196H76.5803V19H75.2521V4.45455H76.5376L85.1598 16.6491H85.2734V4.45455H86.5803ZM90.6747 4.45455L94.7017 10.7685H94.794L98.821 4.45455H100.391L95.7102 11.7273L100.391 19H98.821L94.794 12.7571H94.7017L90.6747 19H89.1051L93.8565 11.7273L89.1051 4.45455H90.6747ZM102.028 5.64773V4.45455H112.575V5.64773H107.965V19H106.637V5.64773H102.028ZM115.565 19V4.45455H124.002V5.64773H116.893V11.1236H123.555V12.3168H116.893V17.8068H124.144V19H115.565ZM138.832 9H137.496C137.397 8.50284 137.217 8.04356 136.957 7.62216C136.701 7.19602 136.379 6.82434 135.991 6.5071C135.603 6.18987 135.162 5.94366 134.67 5.76847C134.177 5.59328 133.645 5.50568 133.072 5.50568C132.153 5.50568 131.315 5.74479 130.558 6.22301C129.805 6.70123 129.201 7.40436 128.746 8.33239C128.297 9.25568 128.072 10.3873 128.072 11.7273C128.072 13.0767 128.297 14.2131 128.746 15.1364C129.201 16.0597 129.805 16.7604 130.558 17.2386C131.315 17.7121 132.153 17.9489 133.072 17.9489C133.645 17.9489 134.177 17.8613 134.67 17.6861C135.162 17.5109 135.603 17.267 135.991 16.9545C136.379 16.6373 136.701 16.2656 136.957 15.8395C137.217 15.4134 137.397 14.9517 137.496 14.4545H138.832C138.713 15.1222 138.491 15.7448 138.164 16.3224C137.842 16.8954 137.43 17.3973 136.928 17.8281C136.431 18.259 135.858 18.5952 135.21 18.8366C134.561 19.0781 133.848 19.1989 133.072 19.1989C131.85 19.1989 130.766 18.8935 129.819 18.2827C128.872 17.6671 128.129 16.8007 127.589 15.6832C127.054 14.5658 126.786 13.2472 126.786 11.7273C126.786 10.2074 127.054 8.88873 127.589 7.77131C128.129 6.65388 128.872 5.78977 129.819 5.17898C130.766 4.56345 131.85 4.25568 133.072 4.25568C133.848 4.25568 134.561 4.37642 135.21 4.6179C135.858 4.85464 136.431 5.19081 136.928 5.62642C137.43 6.05729 137.842 6.55919 138.164 7.1321C138.491 7.70502 138.713 8.32765 138.832 9ZM141.951 19V4.45455H143.279V11.1236H151.532V4.45455H152.86V19H151.532V12.3168H143.279V19H141.951Z" fill="white"/>
<path fill-rule="evenodd" clip-rule="evenodd" d="M25.6274 14.9214L22.7407 18.8331C21.3806 20.8525 20.7277 21.6167 18.0075 21.9987C14.9608 22.0533 13.6188 20.5069 13.1655 19.7609L-0.000526428 1.85856H10.2276C13.8394 1.85856 14.861 3.01862 15.5101 3.75569C15.565 3.81801 15.6172 3.8773 15.6681 3.93261L21.2174 11.1918L18.606 14.412L14.1448 8.6811C12.4473 5.97392 11.0437 5.62461 10.6084 5.73377H7.61616L15.6681 16.9773C17.7213 19.6036 19.8229 16.6912 20.0996 16.3077C20.1162 16.2848 20.1262 16.2709 20.1293 16.2678L23.3394 11.8397L25.6274 14.9214ZM26.6495 7.2736L29.2693 3.65971C31.3149 0.297564 33.6761 0.0574053 34.7642 0.00282517C35.7558 -0.0044427 37.0927 0.0036755 38.4309 0.0118014C40.3234 0.0232931 42.2184 0.0348002 43.1426 0.00282517C36.1121 0.611734 35.2572 1.81819 34.414 3.00818C34.3502 3.09818 34.2865 3.1881 34.2202 3.27765L28.9468 10.4234L26.6495 7.2736Z" fill="white"/>
<path d="M36.799 3.93261L31.213 11.1918L33.8417 14.412L38.3324 8.6811C40.0411 5.97392 41.4541 5.62461 41.8922 5.73377H44.9043L36.799 16.9773C34.6084 19.7609 32.363 16.3224 32.3083 16.2678L23.1077 3.65971C21.0485 0.297564 18.6717 0.0574053 17.5764 0.00282517C15.1668 -0.0147211 10.7308 0.0574098 9.14258 0.00282517C16.7549 0.657789 17.1748 2.00411 18.1241 3.27765L29.6795 18.8331C31.0487 20.8525 31.7059 21.6167 34.4441 21.9987C37.511 22.0533 38.8618 20.5069 39.3182 19.7609L52.5714 1.85856H42.2755C38.3324 1.85856 37.4562 3.22307 36.799 3.93261Z" fill="white"/>
</svg>
