<svg width="152" height="22" viewBox="0 0 152 22" fill="none" xmlns="http://www.w3.org/2000/svg">
<path d="M48.9531 4.45455L53.4986 17.2741H53.6264L58.1719 4.45455H59.5639L54.2727 19H52.8523L47.5611 4.45455H48.9531ZM63.3849 4.45455V19H62.0568V4.45455H63.3849ZM78.5803 4.45455V19H77.2876L68.6939 6.8196H68.5803V19H67.2521V4.45455H68.5376L77.1598 16.6491H77.2734V4.45455H78.5803ZM82.6747 4.45455L86.7017 10.7685H86.794L90.821 4.45455H92.3906L87.7102 11.7273L92.3906 19H90.821L86.794 12.7571H86.7017L82.6747 19H81.1051L85.8565 11.7273L81.1051 4.45455H82.6747ZM94.0277 5.64773V4.45455H104.575V5.64773H99.9652V19H98.6371V5.64773H94.0277ZM107.565 19V4.45455H116.002V5.64773H108.893V11.1236H115.555V12.3168H108.893V17.8068H116.144V19H107.565ZM130.832 9H129.496C129.397 8.50284 129.217 8.04356 128.957 7.62216C128.701 7.19602 128.379 6.82434 127.991 6.5071C127.603 6.18987 127.162 5.94366 126.67 5.76847C126.177 5.59328 125.645 5.50568 125.072 5.50568C124.153 5.50568 123.315 5.74479 122.558 6.22301C121.805 6.70123 121.201 7.40436 120.746 8.33239C120.297 9.25568 120.072 10.3873 120.072 11.7273C120.072 13.0767 120.297 14.2131 120.746 15.1364C121.201 16.0597 121.805 16.7604 122.558 17.2386C123.315 17.7121 124.153 17.9489 125.072 17.9489C125.645 17.9489 126.177 17.8613 126.67 17.6861C127.162 17.5109 127.603 17.267 127.991 16.9545C128.379 16.6373 128.701 16.2656 128.957 15.8395C129.217 15.4134 129.397 14.9517 129.496 14.4545H130.832C130.713 15.1222 130.491 15.7448 130.164 16.3224C129.842 16.8954 129.43 17.3973 128.928 17.8281C128.431 18.259 127.858 18.5952 127.21 18.8366C126.561 19.0781 125.848 19.1989 125.072 19.1989C123.85 19.1989 122.766 18.8935 121.819 18.2827C120.872 17.6671 120.129 16.8007 119.589 15.6832C119.054 14.5658 118.786 13.2472 118.786 11.7273C118.786 10.2074 119.054 8.88873 119.589 7.77131C120.129 6.65388 120.872 5.78977 121.819 5.17898C122.766 4.56345 123.85 4.25568 125.072 4.25568C125.848 4.25568 126.561 4.37642 127.21 4.6179C127.858 4.85464 128.431 5.19081 128.928 5.62642C129.43 6.05729 129.842 6.55919 130.164 7.1321C130.491 7.70502 130.713 8.32765 130.832 9ZM133.951 19V4.45455H135.279V11.1236H143.532V4.45455H144.86V19H143.532V12.3168H135.279V19H133.951Z" fill="white"/>
<path fill-rule="evenodd" clip-rule="evenodd" d="M21.7277 15.998L19.2799 19.3148C18.1268 21.027 17.5732 21.6748 15.267 21.9988C12.6839 22.045 11.5461 20.7339 11.1617 20.1015L-0.000745827 4.92339H8.67094C11.7331 4.92339 12.5993 5.90693 13.1496 6.53183C13.1961 6.58467 13.2404 6.63494 13.2835 6.68183L17.9884 12.8364L15.7743 15.5666L11.992 10.7077C10.5529 8.41251 9.36283 8.11635 8.99382 8.2089H6.45689L13.2835 17.7415C15.0243 19.9681 16.8061 17.4989 17.0407 17.1738C17.0548 17.1543 17.0633 17.1425 17.0659 17.1399L19.7878 13.3852L21.7277 15.998ZM22.5942 9.51395L24.815 6.45046C26.5494 3.59994 28.5512 3.39633 29.4737 3.35005C30.3144 3.34389 31.4479 3.35077 32.5824 3.35766C34.1869 3.3674 35.7936 3.37716 36.5771 3.35005C30.6165 3.8663 29.8917 4.88916 29.1768 5.89807C29.1227 5.97438 29.0687 6.05061 29.0125 6.12653L24.5419 12.1845L22.5942 9.51395Z" fill="white"/>
<path d="M31.1998 6.68208L26.4638 12.8366L28.6925 15.5668L32.4999 10.708C33.9486 8.41275 35.1465 8.1166 35.518 8.20915H38.0717L31.1998 17.7417C29.3426 20.1017 27.4389 17.1864 27.3925 17.1402L19.592 6.45071C17.8461 3.60018 15.831 3.39657 14.9024 3.3503C12.8594 3.33542 9.09846 3.39657 7.75195 3.3503C14.2059 3.90559 14.5619 5.04704 15.3667 6.12678L25.1637 19.3151C26.3245 21.0272 26.8817 21.6751 29.2033 21.999C31.8034 22.0453 32.9487 20.7342 33.3357 20.1017L44.5721 4.92364H35.843C32.4999 4.92364 31.757 6.08051 31.1998 6.68208Z" fill="white"/>
</svg>
