<svg width="83" height="83" viewBox="0 0 83 83" fill="none" xmlns="http://www.w3.org/2000/svg">
<g filter="url(#filter0_bd_144_190)">
<circle cx="41.5" cy="37.5" r="18.5" fill="url(#paint0_linear_144_190)" shape-rendering="crispEdges"/>
<circle cx="41.5" cy="37.5" r="18" stroke="url(#paint1_linear_144_190)" shape-rendering="crispEdges"/>
</g>
<path d="M41.0775 38.0499C42.9277 38.0499 44.4274 36.5502 44.4274 34.7C44.4274 32.8499 42.9277 31.3501 41.0775 31.3501C39.2273 31.3501 37.7275 32.8499 37.7275 34.7C37.7275 36.5502 39.2273 38.0499 41.0775 38.0499Z" stroke="white" stroke-width="1.5" stroke-miterlimit="10" stroke-linecap="round"/>
<path d="M41.0771 28C34.3772 28 33.2606 33.5833 34.3772 37.8154C35.3599 41.5226 38.3079 44.0574 40.2508 46.1344C40.3554 46.2495 40.483 46.3415 40.6253 46.4045C40.7676 46.4675 40.9215 46.5 41.0771 46.5C41.2327 46.5 41.3866 46.4675 41.5289 46.4045C41.6711 46.3415 41.7988 46.2495 41.9034 46.1344C43.8464 44.0574 46.7943 41.5226 47.777 37.8154C48.8936 33.5833 47.777 28 41.0771 28Z" stroke="white" stroke-width="1.5" stroke-miterlimit="10" stroke-linecap="round"/>
<defs>
<filter id="filter0_bd_144_190" x="-17" y="-21" width="117" height="117" filterUnits="userSpaceOnUse" color-interpolation-filters="sRGB">
<feFlood flood-opacity="0" result="BackgroundImageFix"/>
<feGaussianBlur in="BackgroundImageFix" stdDeviation="20"/>
<feComposite in2="SourceAlpha" operator="in" result="effect1_backgroundBlur_144_190"/>
<feColorMatrix in="SourceAlpha" type="matrix" values="0 0 0 0 0 0 0 0 0 0 0 0 0 0 0 0 0 0 127 0" result="hardAlpha"/>
<feMorphology radius="1" operator="erode" in="SourceAlpha" result="effect2_dropShadow_144_190"/>
<feOffset dy="4"/>
<feGaussianBlur stdDeviation="12"/>
<feComposite in2="hardAlpha" operator="out"/>
<feColorMatrix type="matrix" values="0 0 0 0 0 0 0 0 0 0 0 0 0 0 0 0 0 0 0.2 0"/>
<feBlend mode="normal" in2="effect1_backgroundBlur_144_190" result="effect2_dropShadow_144_190"/>
<feBlend mode="normal" in="SourceGraphic" in2="effect2_dropShadow_144_190" result="shape"/>
</filter>
<linearGradient id="paint0_linear_144_190" x1="4.87525" y1="6.91532" x2="58.1264" y2="40.131" gradientUnits="userSpaceOnUse">
<stop stop-color="white" stop-opacity="0.4"/>
<stop offset="1" stop-color="white" stop-opacity="0.1"/>
</linearGradient>
<linearGradient id="paint1_linear_144_190" x1="30.6552" y1="19" x2="63.3211" y2="46.7435" gradientUnits="userSpaceOnUse">
<stop stop-color="white"/>
<stop offset="1" stop-color="#00A8E8"/>
</linearGradient>
</defs>
</svg>
