<svg width="16" height="21" viewBox="0 0 16 21" fill="none" xmlns="http://www.w3.org/2000/svg">
<path d="M8.0775 11.0495C9.9277 11.0495 11.4274 9.54976 11.4274 7.69956C11.4274 5.84944 9.9277 4.34961 8.0775 4.34961C6.2273 4.34961 4.72754 5.84944 4.72754 7.69956C4.72754 9.54976 6.2273 11.0495 8.0775 11.0495Z" stroke="white" stroke-width="1.5" stroke-miterlimit="10" stroke-linecap="round"/>
<path d="M8.07714 1C1.37724 1 0.260594 6.58325 1.37724 10.8154C2.35989 14.5226 5.30785 17.0574 7.25084 19.1344C7.35544 19.2495 7.48304 19.3415 7.62534 19.4045C7.76764 19.4675 7.92154 19.5 8.07714 19.5C8.23274 19.5 8.38664 19.4675 8.52894 19.4045C8.67114 19.3415 8.79884 19.2495 8.90344 19.1344C10.8464 17.0574 13.7943 14.5226 14.777 10.8154C15.8936 6.58325 14.777 1 8.07714 1Z" stroke="white" stroke-width="1.5" stroke-miterlimit="10" stroke-linecap="round"/>
</svg>
