<svg width="1440" height="515" viewBox="0 0 1440 515" fill="none" xmlns="http://www.w3.org/2000/svg">
<path d="M3 2C109.444 10.6844 189.278 54.5166 242.5 133.497C295.722 212.477 348.944 237.398 402.167 208.261C455.389 179.124 508.611 139.188 561.833 88.4529C615.056 37.7178 668.278 13.3153 721.5 15.2454C774.722 17.1755 827.944 47.8862 881.167 107.377C934.389 166.869 987.611 191.767 1040.83 182.072C1094.06 172.377 1147.28 158.46 1200.5 140.32C1253.72 122.179 1306.94 138.985 1360.17 190.738C1413.39 242.49 1440 237.277 1440 175.098" stroke="#003459" stroke-width="3"/>
<path d="M3 76C109.444 84.6844 189.278 128.517 242.5 207.497C295.722 286.477 348.944 311.398 402.167 282.261C455.389 253.124 508.611 213.188 561.833 162.453C615.056 111.718 668.278 87.3153 721.5 89.2454C774.722 91.1755 827.944 121.886 881.167 181.377C934.389 240.869 987.611 265.767 1040.83 256.072C1094.06 246.377 1147.28 232.46 1200.5 214.32C1253.72 196.179 1306.94 212.985 1360.17 264.738C1413.39 316.49 1440 311.277 1440 249.098" stroke="#003459" stroke-width="3"/>
<path d="M0 60C106.444 68.6844 186.278 112.517 239.5 191.497C292.722 270.477 345.944 295.398 399.167 266.261C452.389 237.124 505.611 197.188 558.833 146.453C612.056 95.7178 665.278 71.3153 718.5 73.2454C771.722 75.1755 824.944 105.886 878.167 165.377C931.389 224.869 984.611 249.767 1037.83 240.072C1091.06 230.377 1144.28 216.46 1197.5 198.32C1250.72 180.179 1303.94 196.985 1357.17 248.738C1410.39 300.49 1437 295.277 1437 233.098" stroke="#003459" stroke-width="3"/>
<path d="M0 134C106.444 142.684 186.278 186.517 239.5 265.497C292.722 344.477 345.944 369.398 399.167 340.261C452.389 311.124 505.611 271.188 558.833 220.453C612.056 169.718 665.278 145.315 718.5 147.245C771.722 149.176 824.944 179.886 878.167 239.377C931.389 298.869 984.611 323.767 1037.83 314.072C1091.06 304.377 1144.28 290.46 1197.5 272.32C1250.72 254.179 1303.94 270.985 1357.17 322.738C1410.39 374.49 1437 369.277 1437 307.098" stroke="#003459" stroke-width="3"/>
<path d="M2 38C108.444 46.6844 188.278 90.5166 241.5 169.497C294.722 248.477 347.944 273.398 401.167 244.261C454.389 215.124 507.611 175.188 560.833 124.453C614.056 73.7178 667.278 49.3153 720.5 51.2454C773.722 53.1755 826.944 83.8862 880.167 143.377C933.389 202.869 986.611 227.767 1039.83 218.072C1093.06 208.377 1146.28 194.46 1199.5 176.32C1252.72 158.179 1305.94 174.985 1359.17 226.738C1412.39 278.49 1439 273.277 1439 211.098" stroke="#003459" stroke-width="3"/>
<path d="M2 112C108.444 120.684 188.278 164.517 241.5 243.497C294.722 322.477 347.944 347.398 401.167 318.261C454.389 289.124 507.611 249.188 560.833 198.453C614.056 147.718 667.278 123.315 720.5 125.245C773.722 127.176 826.944 157.886 880.167 217.377C933.389 276.869 986.611 301.767 1039.83 292.072C1093.06 282.377 1146.28 268.46 1199.5 250.32C1252.72 232.179 1305.94 248.985 1359.17 300.738C1412.39 352.49 1439 347.277 1439 285.098" stroke="#003459" stroke-width="3"/>
<path d="M2 19C108.444 27.6844 188.278 71.5166 241.5 150.497C294.722 229.477 347.944 254.398 401.167 225.261C454.389 196.124 507.611 156.188 560.833 105.453C614.056 54.7178 667.278 30.3153 720.5 32.2454C773.722 34.1755 826.944 64.8862 880.167 124.377C933.389 183.869 986.611 208.767 1039.83 199.072C1093.06 189.377 1146.28 175.46 1199.5 157.32C1252.72 139.179 1305.94 155.985 1359.17 207.738C1412.39 259.49 1439 254.277 1439 192.098" stroke="#003459" stroke-width="3"/>
<path d="M2 93C108.444 101.684 188.278 145.517 241.5 224.497C294.722 303.477 347.944 328.398 401.167 299.261C454.389 270.124 507.611 230.188 560.833 179.453C614.056 128.718 667.278 104.315 720.5 106.245C773.722 108.176 826.944 138.886 880.167 198.377C933.389 257.869 986.611 282.767 1039.83 273.072C1093.06 263.377 1146.28 249.46 1199.5 231.32C1252.72 213.179 1305.94 229.985 1359.17 281.738C1412.39 333.49 1439 328.277 1439 266.098" stroke="#003459" stroke-width="3"/>
<path d="M3 157C109.444 165.684 189.278 209.517 242.5 288.497C295.722 367.477 348.944 392.398 402.167 363.261C455.389 334.124 508.611 294.188 561.833 243.453C615.056 192.718 668.278 168.315 721.5 170.245C774.722 172.176 827.944 202.886 881.167 262.377C934.389 321.869 987.611 346.767 1040.83 337.072C1094.06 327.377 1147.28 313.46 1200.5 295.32C1253.72 277.179 1306.94 293.985 1360.17 345.738C1413.39 397.49 1440 392.277 1440 330.098" stroke="#003459" stroke-width="3"/>
<path d="M3 231C109.444 239.684 189.278 283.517 242.5 362.497C295.722 441.477 348.944 466.398 402.167 437.261C455.389 408.124 508.611 368.188 561.833 317.453C615.056 266.718 668.278 242.315 721.5 244.245C774.722 246.176 827.944 276.886 881.167 336.377C934.389 395.869 987.611 420.767 1040.83 411.072C1094.06 401.377 1147.28 387.46 1200.5 369.32C1253.72 351.179 1306.94 367.985 1360.17 419.738C1413.39 471.49 1440 466.277 1440 404.098" stroke="#003459" stroke-width="3"/>
<path d="M0 215C106.444 223.684 186.278 267.517 239.5 346.497C292.722 425.477 345.944 450.398 399.167 421.261C452.389 392.124 505.611 352.188 558.833 301.453C612.056 250.718 665.278 226.315 718.5 228.245C771.722 230.176 824.944 260.886 878.167 320.377C931.389 379.869 984.611 404.767 1037.83 395.072C1091.06 385.377 1144.28 371.46 1197.5 353.32C1250.72 335.179 1303.94 351.985 1357.17 403.738C1410.39 455.49 1437 450.277 1437 388.098" stroke="#003459" stroke-width="3"/>
<path d="M0 289C106.444 297.684 186.278 341.517 239.5 420.497C292.722 499.477 345.944 524.398 399.167 495.261C452.389 466.124 505.611 426.188 558.833 375.453C612.056 324.718 665.278 300.315 718.5 302.245C771.722 304.176 824.944 334.886 878.167 394.377C931.389 453.869 984.611 478.767 1037.83 469.072C1091.06 459.377 1144.28 445.46 1197.5 427.32C1250.72 409.179 1303.94 425.985 1357.17 477.738C1410.39 529.49 1437 524.277 1437 462.098" stroke="#003459" stroke-width="3"/>
<path d="M2 193C108.444 201.684 188.278 245.517 241.5 324.497C294.722 403.477 347.944 428.398 401.167 399.261C454.389 370.124 507.611 330.188 560.833 279.453C614.056 228.718 667.278 204.315 720.5 206.245C773.722 208.176 826.944 238.886 880.167 298.377C933.389 357.869 986.611 382.767 1039.83 373.072C1093.06 363.377 1146.28 349.46 1199.5 331.32C1252.72 313.179 1305.94 329.985 1359.17 381.738C1412.39 433.49 1439 428.277 1439 366.098" stroke="#003459" stroke-width="3"/>
<path d="M2 267C108.444 275.684 188.278 319.517 241.5 398.497C294.722 477.477 347.944 502.398 401.167 473.261C454.389 444.124 507.611 404.188 560.833 353.453C614.056 302.718 667.278 278.315 720.5 280.245C773.722 282.176 826.944 312.886 880.167 372.377C933.389 431.869 986.611 456.767 1039.83 447.072C1093.06 437.377 1146.28 423.46 1199.5 405.32C1252.72 387.179 1305.94 403.985 1359.17 455.738C1412.39 507.49 1439 502.277 1439 440.098" stroke="#003459" stroke-width="3"/>
<path d="M2 174C108.444 182.684 188.278 226.517 241.5 305.497C294.722 384.477 347.944 409.398 401.167 380.261C454.389 351.124 507.611 311.188 560.833 260.453C614.056 209.718 667.278 185.315 720.5 187.245C773.722 189.176 826.944 219.886 880.167 279.377C933.389 338.869 986.611 363.767 1039.83 354.072C1093.06 344.377 1146.28 330.46 1199.5 312.32C1252.72 294.179 1305.94 310.985 1359.17 362.738C1412.39 414.49 1439 409.277 1439 347.098" stroke="#003459" stroke-width="3"/>
<path d="M2 248C108.444 256.684 188.278 300.517 241.5 379.497C294.722 458.477 347.944 483.398 401.167 454.261C454.389 425.124 507.611 385.188 560.833 334.453C614.056 283.718 667.278 259.315 720.5 261.245C773.722 263.176 826.944 293.886 880.167 353.377C933.389 412.869 986.611 437.767 1039.83 428.072C1093.06 418.377 1146.28 404.46 1199.5 386.32C1252.72 368.179 1305.94 384.985 1359.17 436.738C1412.39 488.49 1439 483.277 1439 421.098" stroke="#003459" stroke-width="3"/>
</svg>
