<svg width="1561" height="830" viewBox="0 0 1561 830" fill="none" xmlns="http://www.w3.org/2000/svg">
<rect width="1559" height="830" fill="black"/>
<path d="M9.23535 139.95C124.033 149.316 210.131 196.588 267.529 281.766C324.928 366.944 382.327 393.821 439.725 362.397C497.124 330.974 554.523 287.904 611.922 233.187C669.32 178.471 726.719 152.153 784.118 154.235C841.516 156.317 898.915 189.437 956.314 253.597C1013.71 317.756 1071.11 344.608 1128.51 334.153C1185.91 323.698 1243.31 308.688 1300.71 289.124C1358.1 269.56 1415.5 287.685 1472.9 343.499C1530.3 399.312 1559 393.69 1559 326.631" stroke="#003459" stroke-width="3"/>
<path d="M9.23535 219.757C124.033 229.123 210.131 276.395 267.529 361.573C324.928 446.751 382.327 473.628 439.725 442.204C497.124 410.781 554.523 367.711 611.922 312.994C669.32 258.278 726.719 231.961 784.118 234.042C841.516 236.124 898.915 269.244 956.314 333.404C1013.71 397.563 1071.11 424.416 1128.51 413.96C1185.91 403.505 1243.31 388.495 1300.71 368.931C1358.1 349.367 1415.5 367.492 1472.9 423.306C1530.3 479.119 1559 473.497 1559 406.439" stroke="#003459" stroke-width="3"/>
<path d="M6 202.502C120.797 211.868 206.895 259.139 264.294 344.317C321.693 429.495 379.091 456.372 436.49 424.949C493.889 393.525 551.288 350.455 608.686 295.739C666.085 241.022 723.484 214.705 780.882 216.786C838.281 218.868 895.68 251.989 953.078 316.148C1010.48 380.308 1067.88 407.16 1125.27 396.704C1182.67 386.249 1240.07 371.239 1297.47 351.676C1354.87 332.112 1412.27 350.237 1469.67 406.05C1527.07 461.864 1555.76 456.241 1555.76 389.183" stroke="#003459" stroke-width="3"/>
<path d="M6 282.309C120.797 291.674 206.895 338.946 264.294 424.124C321.693 509.302 379.091 536.179 436.49 504.756C493.889 473.332 551.288 430.262 608.686 375.546C666.085 320.829 723.484 294.512 780.882 296.593C838.281 298.675 895.68 331.796 953.078 395.955C1010.48 460.115 1067.88 486.967 1125.27 476.511C1182.67 466.056 1240.07 451.046 1297.47 431.483C1354.87 411.919 1412.27 430.044 1469.67 485.857C1527.07 541.671 1555.76 536.048 1555.76 468.99" stroke="#003459" stroke-width="3"/>
<path d="M8.15723 178.775C122.955 188.141 209.053 235.413 266.451 320.591C323.85 405.769 381.249 432.646 438.647 401.222C496.046 369.799 553.445 326.729 610.843 272.012C668.242 217.296 725.641 190.979 783.039 193.06C840.438 195.142 897.837 228.262 955.235 292.422C1012.63 356.582 1070.03 383.434 1127.43 372.978C1184.83 362.523 1242.23 347.513 1299.63 327.949C1357.03 308.386 1414.43 326.51 1471.82 382.324C1529.22 438.137 1557.92 432.515 1557.92 365.457" stroke="#003459" stroke-width="3"/>
<path d="M8.15723 258.582C122.955 267.948 209.053 315.22 266.451 400.398C323.85 485.576 381.249 512.453 438.647 481.029C496.046 449.606 553.445 406.536 610.843 351.819C668.242 297.103 725.641 270.785 783.039 272.867C840.438 274.949 897.837 308.069 955.235 372.229C1012.63 436.388 1070.03 463.241 1127.43 452.785C1184.83 442.33 1242.23 427.32 1299.63 407.756C1357.03 388.192 1414.43 406.317 1471.82 462.131C1529.22 517.944 1557.92 512.322 1557.92 445.264" stroke="#003459" stroke-width="3"/>
<path d="M8.15723 158.284C122.955 167.65 209.053 214.922 266.451 300.1C323.85 385.277 381.249 412.155 438.647 380.731C496.046 349.308 553.445 306.238 610.843 251.521C668.242 196.805 725.641 170.487 783.039 172.569C840.438 174.651 897.837 207.771 955.235 271.931C1012.63 336.09 1070.03 362.942 1127.43 352.487C1184.83 342.032 1242.23 327.022 1299.63 307.458C1357.03 287.894 1414.43 306.019 1471.82 361.833C1529.22 417.646 1557.92 412.024 1557.92 344.965" stroke="#003459" stroke-width="3"/>
<path d="M8.15723 238.091C122.955 247.457 209.053 294.729 266.451 379.907C323.85 465.085 381.249 491.962 438.647 460.538C496.046 429.115 553.445 386.045 610.843 331.328C668.242 276.612 725.641 250.295 783.039 252.376C840.438 254.458 897.837 287.578 955.235 351.738C1012.63 415.897 1070.03 442.75 1127.43 432.294C1184.83 421.839 1242.23 406.829 1299.63 387.265C1357.03 367.701 1414.43 385.826 1471.82 441.64C1529.22 497.453 1557.92 491.831 1557.92 424.773" stroke="#003459" stroke-width="3"/>
<path d="M9.23535 307.113C124.033 316.479 210.131 363.751 267.529 448.929C324.928 534.107 382.327 560.984 439.725 529.56C497.124 498.137 554.523 455.067 611.922 400.35C669.32 345.634 726.719 319.316 784.118 321.398C841.516 323.48 898.915 356.6 956.314 420.76C1013.71 484.919 1071.11 511.772 1128.51 501.316C1185.91 490.861 1243.31 475.851 1300.71 456.287C1358.1 436.723 1415.5 454.848 1472.9 510.662C1530.3 566.475 1559 560.853 1559 493.795" stroke="#003459" stroke-width="3"/>
<path d="M9.23535 386.92C124.033 396.286 210.131 443.558 267.529 528.736C324.928 613.914 382.327 640.791 439.725 609.367C497.124 577.944 554.523 534.874 611.922 480.157C669.32 425.441 726.719 399.124 784.118 401.205C841.516 403.287 898.915 436.407 956.314 500.567C1013.71 564.727 1071.11 591.579 1128.51 581.123C1185.91 570.668 1243.31 555.658 1300.71 536.094C1358.1 516.531 1415.5 534.655 1472.9 590.469C1530.3 646.282 1559 640.66 1559 573.602" stroke="#003459" stroke-width="3"/>
<path d="M6 369.665C120.797 379.031 206.895 426.303 264.294 511.48C321.693 596.658 379.091 623.535 436.49 592.112C493.889 560.688 551.288 517.618 608.686 462.902C666.085 408.185 723.484 381.868 780.882 383.95C838.281 386.031 895.68 419.152 953.078 483.311C1010.48 547.471 1067.88 574.323 1125.27 563.868C1182.67 553.412 1240.07 538.403 1297.47 518.839C1354.87 499.275 1412.27 517.4 1469.67 573.213C1527.07 629.027 1555.76 623.404 1555.76 556.346" stroke="#003459" stroke-width="3"/>
<path d="M6 449.471C120.797 458.837 206.895 506.109 264.294 591.287C321.693 676.465 379.091 703.342 436.49 671.918C493.889 640.495 551.288 597.425 608.686 542.708C666.085 487.992 723.484 461.675 780.882 463.756C838.281 465.838 895.68 498.958 953.078 563.118C1010.48 627.278 1067.88 654.13 1125.27 643.674C1182.67 633.219 1240.07 618.209 1297.47 598.645C1354.87 579.082 1412.27 597.206 1469.67 653.02C1527.07 708.833 1555.76 703.211 1555.76 636.153" stroke="#003459" stroke-width="3"/>
<path d="M8.15723 345.938C122.955 355.304 209.053 402.576 266.451 487.754C323.85 572.932 381.249 599.809 438.647 568.385C496.046 536.962 553.445 493.892 610.843 439.175C668.242 384.459 725.641 358.141 783.039 360.223C840.438 362.305 897.837 395.425 955.235 459.585C1012.63 523.744 1070.03 550.596 1127.43 540.141C1184.83 529.686 1242.23 514.676 1299.63 495.112C1357.03 475.548 1414.43 493.673 1471.82 549.487C1529.22 605.3 1557.92 599.678 1557.92 532.62" stroke="#003459" stroke-width="3"/>
<path d="M8.15723 425.745C122.955 435.111 209.053 482.383 266.451 567.561C323.85 652.738 381.249 679.616 438.647 648.192C496.046 616.769 553.445 573.699 610.843 518.982C668.242 464.266 725.641 437.948 783.039 440.03C840.438 442.111 897.837 475.232 955.235 539.392C1012.63 603.551 1070.03 630.403 1127.43 619.948C1184.83 609.492 1242.23 594.483 1299.63 574.919C1357.03 555.355 1414.43 573.48 1471.82 629.294C1529.22 685.107 1557.92 679.485 1557.92 612.426" stroke="#003459" stroke-width="3"/>
<path d="M8.15723 325.447C122.955 334.813 209.053 382.085 266.451 467.263C323.85 552.441 381.249 579.318 438.647 547.894C496.046 516.471 553.445 473.401 610.843 418.684C668.242 363.968 725.641 337.65 783.039 339.732C840.438 341.814 897.837 374.934 955.235 439.094C1012.63 503.253 1070.03 530.106 1127.43 519.65C1184.83 509.195 1242.23 494.185 1299.63 474.621C1357.03 455.057 1414.43 473.182 1471.82 528.996C1529.22 584.809 1557.92 579.187 1557.92 512.129" stroke="#003459" stroke-width="3"/>
<path d="M8.15723 405.254C122.955 414.62 209.053 461.892 266.451 547.07C323.85 632.248 381.249 659.125 438.647 627.701C496.046 596.278 553.445 553.208 610.843 498.491C668.242 443.775 725.641 417.458 783.039 419.539C840.438 421.621 897.837 454.741 955.235 518.901C1012.63 583.061 1070.03 609.913 1127.43 599.457C1184.83 589.002 1242.23 573.992 1299.63 554.428C1357.03 534.865 1414.43 552.989 1471.82 608.803C1529.22 664.616 1557.92 658.994 1557.92 591.936" stroke="#003459" stroke-width="3"/>
</svg>
