<svg width="14" height="14" viewBox="0 0 14 14" fill="none" xmlns="http://www.w3.org/2000/svg">
<path d="M4.74545 3.4375L10.1214 10.5145H9.28844L3.85645 3.4375H4.74545Z" fill="white"/>
<path d="M10.5 0H3.5C2.57174 0 1.6815 0.368746 1.02513 1.02513C0.368746 1.6815 0 2.57174 0 3.5V10.5C0 11.4283 0.368746 12.3185 1.02513 12.9748C1.6815 13.6312 2.57174 14 3.5 14H10.5C11.4283 14 12.3185 13.6312 12.9748 12.9748C13.6312 12.3185 14 11.4283 14 10.5V3.5C14 2.57174 13.6312 1.6815 12.9748 1.02513C12.3185 0.368746 11.4283 0 10.5 0ZM8.876 11.41L6.51 8.33L3.794 11.41H2.296L5.796 7.413L2.1 2.59H5.201L7.343 5.39L9.8 2.59H11.298L8.036 6.3L11.9 11.41H8.876Z" fill="white"/>
</svg>
