<svg width="640" height="268" viewBox="0 0 640 268" fill="none" xmlns="http://www.w3.org/2000/svg">
<path fill-rule="evenodd" clip-rule="evenodd" d="M311.632 181.438L276.528 229.006C259.99 253.562 252.051 262.854 218.973 267.5C181.927 268.163 165.608 249.359 160.095 240.288L-0.000183105 22.5996H124.372C168.29 22.5996 180.713 36.7057 188.606 45.6683C189.273 46.4261 189.908 47.1471 190.527 47.8197L258.005 136.09L226.25 175.247L172.003 105.56C151.363 72.6415 134.295 68.394 129.002 69.7213H92.617L190.527 206.44C215.493 238.375 241.048 202.961 244.413 198.298C244.615 198.019 244.737 197.85 244.774 197.813L283.81 143.966L311.632 181.438ZM324.06 88.443L355.915 44.5013C380.789 3.61831 409.5 0.698036 422.731 0.0343534C434.788 -0.0540223 451.045 0.0446933 467.317 0.143502C490.329 0.283239 513.372 0.423163 524.61 0.0343534C439.121 7.43855 428.726 22.1087 418.472 36.5788C417.697 37.6732 416.922 38.7665 416.116 39.8555L351.995 126.744L324.06 88.443Z" fill="#00A8E8"/>
<path d="M447.478 47.8197L379.553 136.09L411.517 175.247L466.124 105.56C486.901 72.6415 504.082 68.394 509.41 69.7213H546.036L447.478 206.44C420.84 240.288 393.537 198.476 392.871 197.813L280.995 44.5013C255.955 3.61831 227.054 0.698036 213.735 0.0343534C184.434 -0.179005 130.494 0.698091 111.182 0.0343534C203.746 7.99857 208.852 24.3695 220.395 39.8555L360.906 229.006C377.555 253.562 385.546 262.854 418.843 267.5C456.135 268.163 472.561 249.359 478.111 240.288L639.266 22.5996H514.071C466.124 22.5996 455.469 39.1918 447.478 47.8197Z" fill="#00A8E8"/>
</svg>
